<svg xmlns="http://www.w3.org/2000/svg" xmlns:xlink="http://www.w3.org/1999/xlink" width="500" zoomAndPan="magnify" viewBox="0 0 375 374.999991" height="500" preserveAspectRatio="xMidYMid meet" version="1.2"><defs><clipPath id="a54cbf40f0"><path d="M 54 70.179688 L 151 70.179688 L 151 207 L 54 207 Z M 54 70.179688 "/></clipPath><clipPath id="3f2ab9a7cc"><path d="M 215 70.179688 L 312 70.179688 L 312 204 L 215 204 Z M 215 70.179688 "/></clipPath><clipPath id="cc87d824d1"><path d="M 45.296875 134 L 329.546875 134 L 329.546875 304.929688 L 45.296875 304.929688 Z M 45.296875 134 "/></clipPath></defs><g id="706d17a872"><g clip-rule="nonzero" clip-path="url(#a54cbf40f0)"><path style=" stroke:none;fill-rule:evenodd;fill:#0055c7;fill-opacity:1;" d="M 124.25 179.597656 L 124.25 136.140625 C 124.25 129.53125 124.25 123.945312 124.296875 119.453125 C 124.296875 115.011719 124.347656 111.238281 124.398438 108.242188 C 124.398438 105.246094 124.496094 102.667969 124.558594 100.496094 L 124.867188 94.402344 C 125.074219 89.027344 126.050781 84.894531 127.703125 82.058594 C 129.355469 79.269531 132.253906 77.457031 136.335938 76.730469 C 138.195312 76.421875 139.851562 76.164062 141.292969 76.003906 C 142.738281 75.84375 144.082031 75.796875 145.324219 75.796875 C 147.1875 75.796875 148.582031 75.585938 149.507812 75.226562 C 150.441406 74.808594 150.902344 74.042969 150.902344 73.007812 C 150.902344 71.921875 150.382812 71.195312 149.296875 70.789062 C 148.214844 70.371094 146.558594 70.21875 144.390625 70.21875 C 141.34375 70.21875 137.929688 70.269531 134.214844 70.378906 C 130.539062 70.429688 126.828125 70.589844 123.101562 70.6875 C 119.378906 70.789062 115.976562 70.898438 112.867188 70.996094 C 109.773438 71.097656 107.242188 71.15625 105.320312 71.15625 C 102.425781 71.15625 98.601562 71.046875 93.742188 70.898438 C 88.882812 70.738281 83.617188 70.589844 77.832031 70.488281 C 72.046875 70.328125 66.363281 70.230469 60.679688 70.230469 C 58.507812 70.179688 56.90625 70.390625 55.820312 70.796875 C 54.734375 71.207031 54.167969 71.933594 54.167969 73.019531 C 54.167969 74.054688 54.632812 74.828125 55.511719 75.238281 C 56.4375 75.597656 57.730469 75.804688 59.433594 75.804688 C 61.703125 75.804688 63.933594 75.855469 66.203125 76.015625 C 68.421875 76.164062 70.234375 76.433594 71.519531 76.742188 C 74.875 77.417969 77.515625 78.503906 79.375 79.949219 C 81.238281 81.339844 82.582031 83.253906 83.40625 85.632812 C 84.183594 87.953125 84.703125 90.898438 84.851562 94.414062 L 85.160156 100.507812 C 85.210938 102.675781 85.320312 105.257812 85.371094 108.253906 C 85.371094 111.25 85.417969 115.023438 85.417969 119.464844 C 85.46875 123.953125 85.46875 129.539062 85.46875 136.148438 L 85.46875 206.679688 C 98.839844 198.296875 111.773438 189.246094 124.25 179.597656 "/></g><g clip-rule="nonzero" clip-path="url(#3f2ab9a7cc)"><path style=" stroke:none;fill-rule:evenodd;fill:#0055c7;fill-opacity:1;" d="M 246.351562 119.445312 C 246.402344 123.933594 246.402344 129.519531 246.402344 136.128906 L 246.402344 177.140625 C 258.875 186.6875 271.839844 195.628906 285.152344 203.972656 L 285.152344 136.128906 C 285.152344 129.519531 285.152344 123.933594 285.199219 119.445312 C 285.199219 115.003906 285.25 111.230469 285.300781 108.234375 L 285.449219 100.488281 L 285.757812 94.394531 C 285.96875 89.019531 286.941406 84.886719 288.605469 82.046875 C 290.257812 79.261719 293.15625 77.449219 297.238281 76.722656 C 299.097656 76.414062 300.753906 76.152344 302.195312 75.996094 C 303.640625 75.835938 304.984375 75.785156 306.226562 75.785156 C 308.089844 75.785156 309.484375 75.578125 310.410156 75.21875 C 311.335938 74.800781 311.804688 74.035156 311.804688 73 C 311.804688 71.914062 311.285156 71.1875 310.199219 70.777344 C 309.117188 70.359375 307.460938 70.210938 305.292969 70.210938 C 302.246094 70.210938 298.832031 70.261719 295.167969 70.371094 C 291.441406 70.417969 287.730469 70.578125 284.003906 70.679688 L 273.769531 70.988281 C 270.675781 71.085938 268.136719 71.144531 266.222656 71.144531 C 264.101562 71.144531 261.367188 71.097656 258.058594 70.988281 C 254.804688 70.886719 251.082031 70.777344 247.058594 70.679688 C 243.027344 70.578125 238.792969 70.417969 234.453125 70.371094 C 230.113281 70.269531 225.820312 70.210938 221.589844 70.210938 C 219.417969 70.160156 217.816406 70.371094 216.730469 70.777344 C 215.644531 71.1875 215.078125 71.914062 215.078125 73 C 215.078125 74.035156 215.546875 74.808594 216.421875 75.21875 C 217.347656 75.578125 218.644531 75.785156 220.34375 75.785156 C 222.617188 75.785156 224.847656 75.835938 227.117188 75.996094 C 229.335938 76.144531 231.148438 76.414062 232.433594 76.722656 C 235.789062 77.398438 238.425781 78.484375 240.289062 79.925781 C 242.199219 81.320312 243.492188 83.234375 244.320312 85.613281 C 245.097656 87.933594 245.613281 90.878906 245.765625 94.394531 C 245.914062 96.304688 246.023438 98.375 246.074219 100.488281 C 246.171875 102.65625 246.222656 105.238281 246.28125 108.234375 C 246.300781 111.230469 246.351562 114.992188 246.351562 119.445312 "/></g><g clip-rule="nonzero" clip-path="url(#cc87d824d1)"><path style=" stroke:none;fill-rule:evenodd;fill:#0055c7;fill-opacity:1;" d="M 246.351562 241.585938 C 246.300781 249.960938 246.191406 257.445312 245.933594 264.117188 C 245.722656 270.789062 245.367188 276.3125 244.847656 280.703125 C 244.480469 283.703125 243.972656 286.441406 243.34375 288.867188 C 242.726562 291.25 241.839844 293.257812 240.65625 294.753906 C 239.519531 296.304688 237.917969 297.339844 235.847656 297.75 C 234.453125 298.058594 232.851562 298.367188 230.988281 298.625 C 229.128906 298.835938 227.007812 298.984375 224.6875 298.984375 C 222.875 298.984375 221.589844 299.195312 220.8125 299.652344 C 220.097656 300.058594 219.726562 300.6875 219.726562 301.464844 C 219.726562 302.546875 220.296875 303.324219 221.382812 303.84375 C 222.464844 304.3125 224.070312 304.570312 226.238281 304.570312 C 229.335938 304.570312 232.703125 304.519531 236.414062 304.410156 L 247.476562 304.101562 C 251.199219 304.003906 254.554688 303.894531 257.652344 303.792969 C 260.699219 303.695312 263.175781 303.644531 264.988281 303.644531 C 267.9375 303.644531 271.917969 303.742188 276.925781 303.902344 C 281.886719 304.0625 287.519531 304.160156 293.824219 304.320312 C 300.074219 304.480469 306.585938 304.578125 313.355469 304.578125 C 315.269531 304.578125 316.773438 304.320312 317.847656 303.851562 C 318.980469 303.335938 319.550781 302.558594 319.550781 301.472656 C 319.550781 300.695312 319.132812 300.078125 318.363281 299.660156 C 317.539062 299.195312 316.292969 298.996094 314.589844 298.996094 C 313.039062 298.996094 311.285156 298.945312 309.375 298.835938 L 303.796875 298.378906 C 301.9375 298.167969 300.285156 297.957031 298.789062 297.757812 C 295.742188 297.351562 293.363281 296.316406 291.710938 294.8125 C 290.109375 293.257812 288.925781 291.296875 288.199219 288.917969 C 287.46875 286.589844 286.953125 283.910156 286.695312 281.011719 C 286.175781 276.523438 285.816406 270.9375 285.609375 264.21875 C 285.398438 257.496094 285.25 249.960938 285.199219 241.585938 C 285.171875 236.886719 285.160156 232.019531 285.152344 226.972656 C 291.832031 230.953125 298.542969 234.765625 305.253906 238.410156 L 329.585938 238.410156 C 277.046875 212.097656 226.925781 177.699219 186.863281 134.46875 C 146.261719 176.730469 98.183594 212.882812 45.324219 238.410156 L 70.035156 238.410156 C 75.222656 235.632812 80.371094 232.734375 85.480469 229.738281 C 85.46875 233.800781 85.457031 237.742188 85.4375 241.585938 C 85.390625 249.960938 85.230469 257.445312 85.03125 264.117188 C 84.820312 270.789062 84.464844 276.3125 83.945312 280.703125 C 83.585938 283.703125 83.070312 286.441406 82.453125 288.867188 C 81.824219 291.25 80.949219 293.257812 79.765625 294.753906 C 78.628906 296.304688 77.027344 297.339844 74.953125 297.75 C 73.5625 298.058594 71.957031 298.367188 70.097656 298.625 C 68.234375 298.835938 66.113281 298.984375 63.792969 298.984375 C 61.980469 298.984375 60.699219 299.195312 59.921875 299.652344 C 59.195312 300.058594 58.835938 300.6875 58.835938 301.464844 C 58.835938 302.546875 59.355469 303.324219 60.4375 303.84375 C 61.472656 304.3125 63.015625 304.570312 65.039062 304.570312 C 68.195312 304.570312 71.648438 304.519531 75.375 304.410156 L 86.535156 304.101562 C 90.257812 304.003906 93.664062 303.894531 96.769531 303.792969 C 99.816406 303.695312 102.292969 303.644531 104.105469 303.644531 C 107.054688 303.644531 111.035156 303.742188 116.042969 303.902344 C 121.003906 304.0625 126.636719 304.160156 132.890625 304.320312 C 139.191406 304.480469 145.703125 304.578125 152.472656 304.578125 C 154.386719 304.578125 155.878906 304.320312 156.964844 303.851562 C 158.097656 303.335938 158.667969 302.558594 158.667969 301.472656 C 158.667969 300.695312 158.25 300.078125 157.480469 299.660156 C 156.65625 299.195312 155.410156 298.996094 153.707031 298.996094 C 152.105469 298.996094 150.402344 298.945312 148.492188 298.835938 L 142.917969 298.378906 C 141.054688 298.167969 139.402344 297.957031 137.910156 297.761719 C 134.863281 297.351562 132.480469 296.316406 130.828125 294.8125 C 129.175781 293.257812 128.042969 291.296875 127.316406 288.917969 C 126.589844 286.589844 126.070312 283.910156 125.820312 281.011719 C 125.304688 276.523438 124.945312 270.9375 124.734375 264.21875 C 124.527344 257.496094 124.378906 249.960938 124.328125 241.585938 C 124.277344 233.164062 124.277344 224.222656 124.277344 214.664062 L 124.277344 204.53125 C 146.730469 188.421875 167.835938 170.550781 186.8125 151.632812 C 204.277344 169.355469 224.675781 186.269531 246.429688 201.742188 L 246.429688 214.664062 C 246.402344 224.234375 246.402344 233.171875 246.351562 241.585938 "/></g><path style=" stroke:none;fill-rule:evenodd;fill:#0055c7;fill-opacity:1;" d="M 164.949219 197.898438 L 183.867188 197.898438 L 183.867188 216.816406 L 164.949219 216.816406 Z M 164.949219 197.898438 "/><path style=" stroke:none;fill-rule:evenodd;fill:#0055c7;fill-opacity:1;" d="M 191.074219 197.898438 L 209.992188 197.898438 L 209.992188 216.816406 L 191.074219 216.816406 Z M 191.074219 197.898438 "/><path style=" stroke:none;fill-rule:evenodd;fill:#0055c7;fill-opacity:1;" d="M 164.949219 224.023438 L 183.867188 224.023438 L 183.867188 242.941406 L 164.949219 242.941406 Z M 164.949219 224.023438 "/><path style=" stroke:none;fill-rule:evenodd;fill:#0055c7;fill-opacity:1;" d="M 191.074219 224.023438 L 209.992188 224.023438 L 209.992188 242.941406 L 191.074219 242.941406 Z M 191.074219 224.023438 "/></g></svg>