<svg xmlns="http://www.w3.org/2000/svg" xmlns:xlink="http://www.w3.org/1999/xlink" width="500" zoomAndPan="magnify" viewBox="0 0 375 374.999991" height="500" preserveAspectRatio="xMidYMid meet" version="1.2"><defs><clipPath id="9182f3390f"><path d="M 41 130.148438 L 84 130.148438 L 84 190 L 41 190 Z M 41 130.148438 "/></clipPath><clipPath id="17a6279448"><path d="M 111 130.148438 L 154 130.148438 L 154 189 L 111 189 Z M 111 130.148438 "/></clipPath><clipPath id="64f5ab4c48"><path d="M 37.5 158 L 161.25 158 L 161.25 232.148438 L 37.5 232.148438 Z M 37.5 158 "/></clipPath></defs><g id="0e2e032d07"><g style="fill:#ffffff;fill-opacity:1;"><g transform="translate(153.859701, 230.110359)"><path style="stroke:none" d="M 28.4375 -55.3125 C 34.570312 -55.3125 39.363281 -53.445312 42.8125 -49.71875 C 46.269531 -45.988281 48 -40.1875 48 -32.3125 L 11.078125 -32.3125 L 10.984375 -34.296875 L 37.953125 -34.296875 C 38.097656 -37.710938 37.820312 -40.863281 37.125 -43.75 C 36.425781 -46.644531 35.328125 -48.960938 33.828125 -50.703125 C 32.328125 -52.453125 30.390625 -53.328125 28.015625 -53.328125 C 24.816406 -53.328125 21.976562 -51.722656 19.5 -48.515625 C 17.019531 -45.304688 15.539062 -40.21875 15.0625 -33.25 L 15.375 -32.828125 C 15.226562 -31.785156 15.117188 -30.632812 15.046875 -29.375 C 14.984375 -28.125 14.953125 -26.875 14.953125 -25.625 C 14.953125 -20.875 15.71875 -16.789062 17.25 -13.375 C 18.78125 -9.96875 20.785156 -7.375 23.265625 -5.59375 C 25.742188 -3.8125 28.304688 -2.921875 30.953125 -2.921875 C 33.046875 -2.921875 35.03125 -3.253906 36.90625 -3.921875 C 38.789062 -4.585938 40.535156 -5.6875 42.140625 -7.21875 C 43.742188 -8.75 45.140625 -10.804688 46.328125 -13.390625 L 48.40625 -12.546875 C 47.644531 -10.242188 46.390625 -8.007812 44.640625 -5.84375 C 42.898438 -3.6875 40.707031 -1.925781 38.0625 -0.5625 C 35.414062 0.789062 32.347656 1.46875 28.859375 1.46875 C 23.835938 1.46875 19.53125 0.316406 15.9375 -1.984375 C 12.351562 -4.285156 9.601562 -7.472656 7.6875 -11.546875 C 5.769531 -15.628906 4.8125 -20.320312 4.8125 -25.625 C 4.8125 -31.75 5.785156 -37.023438 7.734375 -41.453125 C 9.691406 -45.878906 12.445312 -49.296875 16 -51.703125 C 19.550781 -54.109375 23.695312 -55.3125 28.4375 -55.3125 Z M 28.4375 -55.3125 "/></g></g><g style="fill:#ffffff;fill-opacity:1;"><g transform="translate(195.581204, 230.110359)"><path style="stroke:none" d="M 21.75 -55.3125 C 24.539062 -55.3125 26.910156 -54.859375 28.859375 -53.953125 C 30.804688 -53.046875 32.234375 -52.207031 33.140625 -51.4375 C 35.441406 -49.5625 36.835938 -50.816406 37.328125 -55.203125 L 39.734375 -55.203125 C 39.597656 -53.253906 39.492188 -50.9375 39.421875 -48.25 C 39.347656 -45.570312 39.3125 -41.96875 39.3125 -37.4375 L 36.90625 -37.4375 C 36.488281 -40.007812 35.773438 -42.515625 34.765625 -44.953125 C 33.753906 -47.398438 32.269531 -49.40625 30.3125 -50.96875 C 28.363281 -52.539062 25.820312 -53.328125 22.6875 -53.328125 C 20.25 -53.328125 18.207031 -52.644531 16.5625 -51.28125 C 14.925781 -49.925781 14.109375 -47.925781 14.109375 -45.28125 C 14.109375 -43.1875 14.734375 -41.390625 15.984375 -39.890625 C 17.242188 -38.390625 18.882812 -36.992188 20.90625 -35.703125 C 22.925781 -34.421875 25.125 -33.007812 27.5 -31.46875 C 30.144531 -29.800781 32.546875 -28.09375 34.703125 -26.34375 C 36.867188 -24.601562 38.597656 -22.6875 39.890625 -20.59375 C 41.179688 -18.507812 41.828125 -16.035156 41.828125 -13.171875 C 41.828125 -9.960938 40.988281 -7.273438 39.3125 -5.109375 C 37.644531 -2.953125 35.46875 -1.316406 32.78125 -0.203125 C 30.09375 0.910156 27.144531 1.46875 23.9375 1.46875 C 22.40625 1.46875 20.957031 1.34375 19.59375 1.09375 C 18.238281 0.851562 16.9375 0.488281 15.6875 0 C 14.988281 -0.34375 14.269531 -0.757812 13.53125 -1.25 C 12.800781 -1.738281 12.085938 -2.265625 11.390625 -2.828125 C 10.703125 -3.378906 10.078125 -3.359375 9.515625 -2.765625 C 8.953125 -2.171875 8.535156 -1.003906 8.265625 0.734375 L 5.859375 0.734375 C 5.992188 -1.492188 6.097656 -4.210938 6.171875 -7.421875 C 6.242188 -10.628906 6.28125 -14.882812 6.28125 -20.1875 L 8.671875 -20.1875 C 9.160156 -16.28125 9.859375 -12.863281 10.765625 -9.9375 C 11.671875 -7.007812 13.097656 -4.722656 15.046875 -3.078125 C 17.003906 -1.441406 19.726562 -0.625 23.21875 -0.625 C 24.601562 -0.625 26.007812 -0.9375 27.4375 -1.5625 C 28.875 -2.195312 30.078125 -3.242188 31.046875 -4.703125 C 32.023438 -6.171875 32.515625 -8.125 32.515625 -10.5625 C 32.515625 -13.625 31.398438 -16.128906 29.171875 -18.078125 C 26.941406 -20.035156 24.117188 -22.097656 20.703125 -24.265625 C 18.191406 -25.859375 15.835938 -27.457031 13.640625 -29.0625 C 11.453125 -30.664062 9.675781 -32.476562 8.3125 -34.5 C 6.957031 -36.519531 6.28125 -38.960938 6.28125 -41.828125 C 6.28125 -44.960938 6.992188 -47.519531 8.421875 -49.5 C 9.847656 -51.488281 11.742188 -52.953125 14.109375 -53.890625 C 16.484375 -54.835938 19.03125 -55.3125 21.75 -55.3125 Z M 21.75 -55.3125 "/></g></g><g style="fill:#ffffff;fill-opacity:1;"><g transform="translate(231.133245, 230.110359)"><path style="stroke:none" d="M 19.859375 -71.203125 L 19.859375 -53.75 L 35.34375 -53.75 L 35.34375 -51.65625 L 19.859375 -51.65625 L 19.859375 -11.1875 C 19.859375 -7.914062 20.453125 -5.613281 21.640625 -4.28125 C 22.828125 -2.957031 24.46875 -2.296875 26.5625 -2.296875 C 28.65625 -2.296875 30.46875 -3.148438 32 -4.859375 C 33.53125 -6.566406 34.851562 -9.441406 35.96875 -13.484375 L 38.0625 -12.96875 C 37.363281 -8.925781 35.984375 -5.507812 33.921875 -2.71875 C 31.867188 0.0703125 28.71875 1.46875 24.46875 1.46875 C 22.09375 1.46875 20.140625 1.171875 18.609375 0.578125 C 17.078125 -0.015625 15.71875 -0.867188 14.53125 -1.984375 C 13 -3.585938 11.9375 -5.503906 11.34375 -7.734375 C 10.75 -9.960938 10.453125 -12.925781 10.453125 -16.625 L 10.453125 -51.65625 L 0.421875 -51.65625 L 0.421875 -53.75 L 10.453125 -53.75 L 10.453125 -69.75 C 12.203125 -69.8125 13.875 -69.945312 15.46875 -70.15625 C 17.070312 -70.363281 18.535156 -70.710938 19.859375 -71.203125 Z M 19.859375 -71.203125 "/></g></g><g style="fill:#ffffff;fill-opacity:1;"><g transform="translate(256.96055, 230.110359)"><path style="stroke:none" d="M 14.953125 -79.984375 C 16.765625 -79.984375 18.332031 -79.320312 19.65625 -78 C 20.976562 -76.675781 21.640625 -75.109375 21.640625 -73.296875 C 21.640625 -71.484375 20.976562 -69.914062 19.65625 -68.59375 C 18.332031 -67.269531 16.765625 -66.609375 14.953125 -66.609375 C 13.140625 -66.609375 11.566406 -67.269531 10.234375 -68.59375 C 8.910156 -69.914062 8.25 -71.484375 8.25 -73.296875 C 8.25 -75.109375 8.910156 -76.675781 10.234375 -78 C 11.566406 -79.320312 13.140625 -79.984375 14.953125 -79.984375 Z M 20.390625 -55 L 20.390625 -9.71875 C 20.390625 -6.789062 21 -4.804688 22.21875 -3.765625 C 23.4375 -2.722656 25.476562 -2.203125 28.34375 -2.203125 L 28.34375 0 C 27.15625 -0.0703125 25.359375 -0.160156 22.953125 -0.265625 C 20.546875 -0.367188 18.125 -0.421875 15.6875 -0.421875 C 13.3125 -0.421875 10.90625 -0.367188 8.46875 -0.265625 C 6.03125 -0.160156 4.21875 -0.0703125 3.03125 0 L 3.03125 -2.203125 C 5.882812 -2.203125 7.921875 -2.722656 9.140625 -3.765625 C 10.367188 -4.804688 10.984375 -6.789062 10.984375 -9.71875 L 10.984375 -42.453125 C 10.984375 -45.585938 10.425781 -47.90625 9.3125 -49.40625 C 8.195312 -50.90625 6.101562 -51.65625 3.03125 -51.65625 L 3.03125 -53.84375 C 5.257812 -53.632812 7.421875 -53.53125 9.515625 -53.53125 C 11.535156 -53.53125 13.46875 -53.648438 15.3125 -53.890625 C 17.164062 -54.140625 18.859375 -54.507812 20.390625 -55 Z M 20.390625 -55 "/></g></g><g style="fill:#ffffff;fill-opacity:1;"><g transform="translate(276.40926, 230.110359)"><path style="stroke:none" d="M 17.875 0.734375 C 15.019531 0.734375 12.546875 0.191406 10.453125 -0.890625 C 8.359375 -1.972656 6.769531 -3.488281 5.6875 -5.4375 C 4.613281 -7.382812 4.078125 -9.648438 4.078125 -12.234375 C 4.078125 -15.296875 4.789062 -17.800781 6.21875 -19.75 C 7.644531 -21.707031 9.472656 -23.28125 11.703125 -24.46875 C 13.941406 -25.65625 16.296875 -26.648438 18.765625 -27.453125 C 21.242188 -28.253906 23.597656 -29.019531 25.828125 -29.75 C 28.054688 -30.476562 29.882812 -31.332031 31.3125 -32.3125 C 32.738281 -33.289062 33.453125 -34.578125 33.453125 -36.171875 L 33.453125 -42.65625 C 33.453125 -45.582031 33.015625 -47.8125 32.140625 -49.34375 C 31.273438 -50.882812 30.109375 -51.914062 28.640625 -52.4375 C 27.179688 -52.957031 25.546875 -53.21875 23.734375 -53.21875 C 21.992188 -53.21875 20.128906 -52.972656 18.140625 -52.484375 C 16.148438 -52.003906 14.566406 -50.992188 13.390625 -49.453125 C 14.710938 -49.179688 15.859375 -48.484375 16.828125 -47.359375 C 17.804688 -46.242188 18.296875 -44.816406 18.296875 -43.078125 C 18.296875 -41.335938 17.738281 -39.960938 16.625 -38.953125 C 15.507812 -37.941406 14.082031 -37.4375 12.34375 -37.4375 C 10.320312 -37.4375 8.835938 -38.078125 7.890625 -39.359375 C 6.953125 -40.648438 6.484375 -42.097656 6.484375 -43.703125 C 6.484375 -45.515625 6.9375 -46.976562 7.84375 -48.09375 C 8.75 -49.207031 9.898438 -50.253906 11.296875 -51.234375 C 12.898438 -52.347656 14.972656 -53.304688 17.515625 -54.109375 C 20.054688 -54.910156 22.929688 -55.3125 26.140625 -55.3125 C 28.992188 -55.3125 31.429688 -54.976562 33.453125 -54.3125 C 35.484375 -53.65625 37.160156 -52.695312 38.484375 -51.4375 C 40.296875 -49.769531 41.476562 -47.734375 42.03125 -45.328125 C 42.59375 -42.921875 42.875 -40.046875 42.875 -36.703125 L 42.875 -7.640625 C 42.875 -5.890625 43.132812 -4.628906 43.65625 -3.859375 C 44.175781 -3.097656 44.992188 -2.71875 46.109375 -2.71875 C 46.878906 -2.71875 47.613281 -2.890625 48.3125 -3.234375 C 49.007812 -3.585938 49.84375 -4.148438 50.8125 -4.921875 L 51.96875 -3.140625 C 50.5 -2.023438 49.101562 -1.097656 47.78125 -0.359375 C 46.457031 0.367188 44.679688 0.734375 42.453125 0.734375 C 40.429688 0.734375 38.757812 0.382812 37.4375 -0.3125 C 36.113281 -1.007812 35.117188 -2.035156 34.453125 -3.390625 C 33.785156 -4.753906 33.453125 -6.484375 33.453125 -8.578125 C 31.578125 -5.441406 29.332031 -3.101562 26.71875 -1.5625 C 24.101562 -0.03125 21.15625 0.734375 17.875 0.734375 Z M 21.640625 -3.453125 C 23.941406 -3.453125 26.085938 -4.113281 28.078125 -5.4375 C 30.066406 -6.757812 31.859375 -8.742188 33.453125 -11.390625 L 33.453125 -31.890625 C 32.617188 -30.703125 31.398438 -29.707031 29.796875 -28.90625 C 28.191406 -28.101562 26.445312 -27.300781 24.5625 -26.5 C 22.6875 -25.695312 20.894531 -24.753906 19.1875 -23.671875 C 17.476562 -22.597656 16.066406 -21.1875 14.953125 -19.4375 C 13.835938 -17.695312 13.28125 -15.4375 13.28125 -12.65625 C 13.28125 -9.863281 14.03125 -7.628906 15.53125 -5.953125 C 17.03125 -4.285156 19.066406 -3.453125 21.640625 -3.453125 Z M 21.640625 -3.453125 "/></g></g><g clip-rule="nonzero" clip-path="url(#9182f3390f)"><path style=" stroke:none;fill-rule:evenodd;fill:#ffffff;fill-opacity:1;" d="M 71.839844 177.738281 L 71.839844 158.839844 C 71.839844 155.960938 71.839844 153.535156 71.859375 151.582031 C 71.859375 149.648438 71.882812 148.007812 71.90625 146.703125 C 71.90625 145.402344 71.949219 144.28125 71.972656 143.335938 L 72.109375 140.683594 C 72.199219 138.347656 72.625 136.550781 73.34375 135.316406 C 74.0625 134.101562 75.320312 133.316406 77.097656 133 C 77.90625 132.863281 78.625 132.753906 79.253906 132.683594 C 79.882812 132.613281 80.464844 132.59375 81.007812 132.59375 C 81.816406 132.59375 82.421875 132.5 82.824219 132.34375 C 83.234375 132.164062 83.433594 131.828125 83.433594 131.378906 C 83.433594 130.90625 83.207031 130.589844 82.734375 130.414062 C 82.261719 130.230469 81.542969 130.167969 80.601562 130.167969 C 79.273438 130.167969 77.789062 130.1875 76.175781 130.238281 C 74.578125 130.257812 72.960938 130.328125 71.339844 130.371094 C 69.722656 130.414062 68.242188 130.460938 66.890625 130.503906 C 65.542969 130.546875 64.441406 130.574219 63.609375 130.574219 C 62.347656 130.574219 60.683594 130.527344 58.570312 130.460938 C 56.457031 130.390625 54.167969 130.328125 51.652344 130.285156 C 49.136719 130.214844 46.664062 130.171875 44.191406 130.171875 C 43.246094 130.148438 42.550781 130.242188 42.078125 130.417969 C 41.605469 130.597656 41.359375 130.910156 41.359375 131.382812 C 41.359375 131.835938 41.5625 132.171875 41.941406 132.347656 C 42.34375 132.503906 42.910156 132.597656 43.648438 132.597656 C 44.636719 132.597656 45.605469 132.617188 46.59375 132.6875 C 47.558594 132.753906 48.347656 132.871094 48.90625 133.003906 C 50.367188 133.296875 51.511719 133.769531 52.324219 134.398438 C 53.132812 135.003906 53.71875 135.835938 54.078125 136.871094 C 54.414062 137.878906 54.640625 139.160156 54.703125 140.691406 L 54.839844 143.339844 C 54.859375 144.285156 54.90625 145.40625 54.929688 146.707031 C 54.929688 148.011719 54.953125 149.652344 54.953125 151.585938 C 54.972656 153.539062 54.972656 155.96875 54.972656 158.84375 L 54.972656 189.519531 C 60.789062 185.871094 66.414062 181.9375 71.839844 177.738281 "/></g><g clip-rule="nonzero" clip-path="url(#17a6279448)"><path style=" stroke:none;fill-rule:evenodd;fill:#ffffff;fill-opacity:1;" d="M 124.945312 151.578125 C 124.96875 153.527344 124.96875 155.957031 124.96875 158.832031 L 124.96875 176.671875 C 130.394531 180.824219 136.03125 184.710938 141.820312 188.339844 L 141.820312 158.832031 C 141.820312 155.957031 141.820312 153.527344 141.84375 151.578125 C 141.84375 149.644531 141.867188 148.003906 141.886719 146.699219 L 141.953125 143.332031 L 142.085938 140.679688 C 142.175781 138.34375 142.601562 136.546875 143.324219 135.3125 C 144.042969 134.097656 145.304688 133.3125 147.078125 132.996094 C 147.890625 132.859375 148.609375 132.746094 149.234375 132.679688 C 149.863281 132.609375 150.449219 132.585938 150.988281 132.585938 C 151.800781 132.585938 152.40625 132.496094 152.808594 132.339844 C 153.210938 132.160156 153.414062 131.824219 153.414062 131.375 C 153.414062 130.902344 153.1875 130.585938 152.71875 130.410156 C 152.246094 130.226562 151.527344 130.164062 150.582031 130.164062 C 149.257812 130.164062 147.773438 130.183594 146.179688 130.230469 C 144.558594 130.253906 142.945312 130.324219 141.324219 130.367188 L 136.871094 130.5 C 135.527344 130.542969 134.421875 130.570312 133.589844 130.570312 C 132.667969 130.570312 131.476562 130.546875 130.039062 130.5 C 128.625 130.457031 127.003906 130.410156 125.253906 130.367188 C 123.5 130.324219 121.660156 130.253906 119.773438 130.230469 C 117.882812 130.1875 116.019531 130.164062 114.175781 130.164062 C 113.234375 130.140625 112.535156 130.230469 112.0625 130.410156 C 111.59375 130.585938 111.34375 130.902344 111.34375 131.375 C 111.34375 131.824219 111.546875 132.164062 111.929688 132.339844 C 112.332031 132.496094 112.894531 132.585938 113.636719 132.585938 C 114.625 132.585938 115.59375 132.609375 116.582031 132.679688 C 117.546875 132.742188 118.335938 132.859375 118.894531 132.996094 C 120.351562 133.289062 121.5 133.761719 122.308594 134.390625 C 123.140625 134.996094 123.703125 135.828125 124.0625 136.863281 C 124.402344 137.871094 124.625 139.152344 124.691406 140.679688 C 124.757812 141.511719 124.804688 142.414062 124.824219 143.332031 C 124.867188 144.273438 124.890625 145.398438 124.917969 146.699219 C 124.925781 148.003906 124.945312 149.640625 124.945312 151.578125 "/></g><g clip-rule="nonzero" clip-path="url(#64f5ab4c48)"><path style=" stroke:none;fill-rule:evenodd;fill:#ffffff;fill-opacity:1;" d="M 124.945312 204.699219 C 124.925781 208.34375 124.878906 211.597656 124.765625 214.5 C 124.675781 217.402344 124.519531 219.804688 124.292969 221.714844 C 124.132812 223.019531 123.910156 224.207031 123.640625 225.265625 C 123.371094 226.300781 122.984375 227.175781 122.46875 227.824219 C 121.976562 228.5 121.277344 228.949219 120.378906 229.128906 C 119.773438 229.261719 119.074219 229.398438 118.265625 229.507812 C 117.457031 229.601562 116.53125 229.664062 115.523438 229.664062 C 114.734375 229.664062 114.175781 229.757812 113.839844 229.957031 C 113.527344 230.132812 113.367188 230.40625 113.367188 230.742188 C 113.367188 231.214844 113.613281 231.554688 114.085938 231.777344 C 114.558594 231.980469 115.253906 232.09375 116.199219 232.09375 C 117.546875 232.09375 119.011719 232.074219 120.625 232.023438 L 125.4375 231.890625 C 127.054688 231.847656 128.515625 231.800781 129.863281 231.757812 C 131.1875 231.714844 132.265625 231.691406 133.054688 231.691406 C 134.335938 231.691406 136.066406 231.734375 138.246094 231.804688 C 140.402344 231.875 142.851562 231.917969 145.59375 231.984375 C 148.3125 232.054688 151.144531 232.097656 154.089844 232.097656 C 154.921875 232.097656 155.574219 231.984375 156.042969 231.78125 C 156.535156 231.558594 156.785156 231.21875 156.785156 230.746094 C 156.785156 230.410156 156.601562 230.140625 156.269531 229.960938 C 155.910156 229.757812 155.367188 229.667969 154.625 229.667969 C 153.953125 229.667969 153.1875 229.648438 152.359375 229.601562 L 149.933594 229.402344 C 149.121094 229.308594 148.402344 229.21875 147.753906 229.132812 C 146.429688 228.953125 145.394531 228.503906 144.675781 227.851562 C 143.980469 227.175781 143.464844 226.320312 143.148438 225.289062 C 142.832031 224.273438 142.605469 223.109375 142.492188 221.847656 C 142.269531 219.894531 142.113281 217.464844 142.019531 214.542969 C 141.929688 211.621094 141.867188 208.34375 141.84375 204.699219 C 141.832031 202.65625 141.828125 200.539062 141.820312 198.34375 C 144.726562 200.074219 147.644531 201.734375 150.566406 203.320312 L 161.148438 203.320312 C 138.296875 191.875 116.5 176.914062 99.074219 158.109375 C 81.414062 176.492188 60.503906 192.214844 37.511719 203.320312 L 48.261719 203.320312 C 50.515625 202.109375 52.753906 200.851562 54.976562 199.546875 C 54.972656 201.316406 54.96875 203.03125 54.960938 204.699219 C 54.9375 208.34375 54.867188 211.597656 54.78125 214.5 C 54.691406 217.402344 54.535156 219.804688 54.308594 221.714844 C 54.15625 223.019531 53.929688 224.207031 53.660156 225.265625 C 53.386719 226.300781 53.007812 227.175781 52.492188 227.824219 C 51.996094 228.5 51.300781 228.949219 50.398438 229.128906 C 49.792969 229.261719 49.097656 229.398438 48.285156 229.507812 C 47.476562 229.601562 46.554688 229.664062 45.546875 229.664062 C 44.757812 229.664062 44.199219 229.757812 43.859375 229.957031 C 43.546875 230.132812 43.390625 230.40625 43.390625 230.742188 C 43.390625 231.214844 43.613281 231.554688 44.085938 231.777344 C 44.535156 231.980469 45.207031 232.09375 46.085938 232.09375 C 47.460938 232.09375 48.960938 232.074219 50.582031 232.023438 L 55.4375 231.890625 C 57.054688 231.847656 58.535156 231.800781 59.886719 231.757812 C 61.214844 231.714844 62.292969 231.691406 63.078125 231.691406 C 64.359375 231.691406 66.09375 231.734375 68.269531 231.804688 C 70.429688 231.875 72.878906 231.917969 75.597656 231.984375 C 78.339844 232.054688 81.171875 232.097656 84.117188 232.097656 C 84.949219 232.097656 85.597656 231.984375 86.070312 231.78125 C 86.5625 231.558594 86.808594 231.21875 86.808594 230.746094 C 86.808594 230.410156 86.628906 230.140625 86.292969 229.960938 C 85.933594 229.757812 85.394531 229.667969 84.652344 229.667969 C 83.957031 229.667969 83.214844 229.648438 82.382812 229.601562 L 79.957031 229.402344 C 79.148438 229.308594 78.429688 229.21875 77.78125 229.132812 C 76.457031 228.953125 75.421875 228.503906 74.703125 227.851562 C 73.984375 227.175781 73.488281 226.320312 73.171875 225.289062 C 72.855469 224.273438 72.632812 223.109375 72.523438 221.847656 C 72.296875 219.894531 72.144531 217.464844 72.050781 214.542969 C 71.960938 211.621094 71.894531 208.34375 71.875 204.699219 C 71.851562 201.039062 71.851562 197.148438 71.851562 192.992188 L 71.851562 188.582031 C 81.617188 181.578125 90.796875 173.804688 99.050781 165.578125 C 106.648438 173.285156 115.519531 180.640625 124.980469 187.371094 L 124.980469 192.992188 C 124.96875 197.152344 124.96875 201.042969 124.945312 204.699219 "/></g><path style=" stroke:none;fill-rule:evenodd;fill:#ffffff;fill-opacity:1;" d="M 89.542969 185.699219 L 97.769531 185.699219 L 97.769531 193.925781 L 89.542969 193.925781 Z M 89.542969 185.699219 "/><path style=" stroke:none;fill-rule:evenodd;fill:#ffffff;fill-opacity:1;" d="M 100.90625 185.699219 L 109.132812 185.699219 L 109.132812 193.925781 L 100.90625 193.925781 Z M 100.90625 185.699219 "/><path style=" stroke:none;fill-rule:evenodd;fill:#ffffff;fill-opacity:1;" d="M 89.542969 197.0625 L 97.769531 197.0625 L 97.769531 205.289062 L 89.542969 205.289062 Z M 89.542969 197.0625 "/><path style=" stroke:none;fill-rule:evenodd;fill:#ffffff;fill-opacity:1;" d="M 100.90625 197.0625 L 109.132812 197.0625 L 109.132812 205.289062 L 100.90625 205.289062 Z M 100.90625 197.0625 "/></g></svg>